<svg width="64" height="64" viewBox="0 0 64 64" fill="none" xmlns="http://www.w3.org/2000/svg">
    <rect width="64" height="64" fill="white" />
    <path d="M16.96 42H25.856V41.552C22.656 41.136 21.696 39.792 21.696 36.56V21.872H21.888L30.208 42.032H31.36L38.816 21.872H38.976V39.728C38.976 41.008 38.176 41.456 35.904 41.552V42H46.944V41.552C44.256 41.456 43.616 40.944 43.616 39.728V21.968C43.616 20.752 44.256 20.208 46.944 20.112V19.696H38.784L32.736 36.144H32.576L25.984 19.696H16.96V20.112C19.712 20.176 20.896 21.648 20.896 23.568V36.56C20.896 39.792 19.968 41.168 16.96 41.552V42Z" fill="black" />
</svg>
    
    